<svg xmlns="http://www.w3.org/2000/svg" viewBox="0 0 1200 750" role="img" aria-label="Placeholder hero image">
  <defs>
    <linearGradient id="bg" x1="0%" y1="0%" x2="100%" y2="100%">
      <stop offset="0%" stop-color="#e8eef5"/>
      <stop offset="55%" stop-color="#f4efe8"/>
      <stop offset="100%" stop-color="#e6ece8"/>
    </linearGradient>
    <linearGradient id="shape1" x1="0%" y1="0%" x2="100%" y2="100%">
      <stop offset="0%" stop-color="#5b7c99"/>
      <stop offset="100%" stop-color="#3f5870"/>
    </linearGradient>
    <linearGradient id="shape2" x1="0%" y1="100%" x2="100%" y2="0%">
      <stop offset="0%" stop-color="#d8c4ad"/>
      <stop offset="100%" stop-color="#b8956f"/>
    </linearGradient>
    <filter id="blur" x="-20%" y="-20%" width="140%" height="140%">
      <feGaussianBlur stdDeviation="24"/>
    </filter>
  </defs>
  <rect width="1200" height="750" fill="url(#bg)"/>
  <circle cx="980" cy="120" r="120" fill="#c9d8e8" filter="url(#blur)" opacity="0.8"/>
  <circle cx="180" cy="620" r="140" fill="#eadfce" filter="url(#blur)" opacity="0.85"/>
  <rect x="120" y="140" width="520" height="470" rx="36" fill="#ffffff" opacity="0.72"/>
  <rect x="170" y="190" width="420" height="250" rx="28" fill="url(#shape1)" opacity="0.92"/>
  <rect x="210" y="470" width="180" height="18" rx="9" fill="#d7dee6"/>
  <rect x="210" y="505" width="280" height="14" rx="7" fill="#e4e9ef"/>
  <rect x="210" y="535" width="240" height="14" rx="7" fill="#e4e9ef"/>
  <circle cx="760" cy="260" r="88" fill="url(#shape2)"/>
  <rect x="690" y="380" width="220" height="150" rx="26" fill="#ffffff" opacity="0.88"/>
  <rect x="720" y="415" width="160" height="12" rx="6" fill="#d7dee6"/>
  <rect x="720" y="440" width="120" height="12" rx="6" fill="#e4e9ef"/>
  <rect x="720" y="475" width="90" height="28" rx="14" fill="url(#shape1)" opacity="0.85"/>
</svg>
